{"title":"Purification (2012)","uid":8095288,"size":1371341502,"categoryP":"video","categoryS":"movies","magnet":"?xt=urn:btih:e5720f1a11f17b29be45944b4c51404402c44c19&amp;dn=Purification+%282012%29&amp;tr=udp%3A%2F%2Ftracker.openbittorrent.com%3A80&amp;tr=udp%3A%2F%2Fopen.demonii.com%3A1337&amp;tr=udp%3A%2F%2Ftracker.coppersurfer.tk%3A6969&amp;tr=udp%3A%2F%2Fexodus.desync.com%3A6969","seeders":0,"leechers":1,"uploader":"RadioResearch","files":3,"time":1359821949,"description":"*******************************************************************************\n                              Purification (2012)\n*******************************************************************************\n\n-------------------------------------------------------------------------------\n                              General Information\n-------------------------------------------------------------------------------\nType.................: Movie\n\n\n\nVideo Format.........: AVI\nVideo Bitrate........: 2177\nResolution...........: 720 x 404\nColor................: 8 bit\nFPS..................: 29.970\nSource...............: DVD 16x9\nOriginal Format......: NTSC\nGenre................: Horror\nIMDb Rating..........: 4\nMovie Information....: http://www.imdb.com/title/tt2275917\n\n-------------------------------------------------------------------------------\n                               Post Information\n-------------------------------------------------------------------------------\nPosted by............: RadioResearch\nPosted on............: 2/2/2013\n\n-------------------------------------------------------------------------------\n                                 Release Notes\n-------------------------------------------------------------------------------\nBret Fitzpatrick (Joe Ciminera), a wealthy real estate investor located in New \nYork, is caught between reality and the supernatural. There he crosses paths \nwith people who are in a stationary place for the terrible things they have done \nin their lifetime. As Bret begins to wake up to the dark forces from his \ndevastating past, he confronts members of the underworld and has 24 hours to \nredeem himself.\n\nEnjoy!\n\nRadioResearch\n\nGeneral\nComplete name                            : G:AVIPurification \n(2012)PURIFICATION_Title1.avi\nFormat                                   : AVI\nFormat/Info                              : Audio Video Interleave\nFormat profile                           : OpenDML\nFile size                                : 1.28 GiB\nDuration                                 : 1h 23mn\nOverall bit rate                         : 2 177 Kbps\nMovie name                               : PURIFICATION\nDirector                                 : Joe_Ciminera\nGenre                                    : Thriller\nWriting application                      : MEncoder 5.0\nWriting library                          : [= DigiArty videodll! =]\n\nVideo\nID                                       : 0\nFormat                                   : MPEG-4 Visual\nFormat profile                           : Simple@L1\nFormat settings, BVOP                    : No\nFormat settings, QPel                    : No\nFormat settings, GMC                     : No warppoints\nFormat settings, Matrix                  : Default (H.263)\nCodec ID                                 : DX50\nCodec ID/Hint                            : DivX 5\nDuration                                 : 1h 23mn\nBit rate                                 : 1 978 Kbps\nWidth                                    : 720 pixels\nHeight                                   : 404 pixels\nDisplay aspect ratio                     : 16:9\nFrame rate                               : 29.970 fps\nColor space                              : YUV\nChroma subsampling                       : 4:2:0\nBit depth                                : 8 bits\nScan type                                : Progressive\nCompression mode                         : Lossy\nBits/(Pixel*Frame)                       : 0.227\nStream size                              : 1.16 GiB (91%)\nWriting library                          : Lavc54.71.100\n\nAudio\nID                                       : 1\nFormat                                   : AC-3\nFormat/Info                              : Audio Coding 3\nMode extension                           : CM (complete main)\nFormat settings, Endianness              : Big\nCodec ID                                 : 2000\nDuration                                 : 1h 23mn\nBit rate mode                            : Constant\nBit rate                                 : 192 Kbps\nChannel(s)                               : 2 channels\nChannel positions                        : Front: L R\nSampling rate                            : 48.0 KHz\nBit depth                                : 16 bits\nCompression mode                         : Lossy\nStream size                              : 115 MiB (9%)\nAlignment                                : Split accross interleaves\nInterleave, duration                     : 500 ms (14.98 video frames)\nInterleave, preload duration             : 500 ms\n\n\n\n\n-------------------------------------------------------------------------------\nGenerated with Cool NFO Creator - http://fly.to/coolbeans\n-------------------------------------------------------------------------------\n","torrent":{"xt":"urn:btih:e5720f1a11f17b29be45944b4c51404402c44c19","amp;dn":"Purification+%282012%29","amp;tr":["udp%3A%2F%2Ftracker.openbittorrent.com%3A80","udp%3A%2F%2Fopen.demonii.com%3A1337","udp%3A%2F%2Ftracker.coppersurfer.tk%3A6969","udp%3A%2F%2Fexodus.desync.com%3A6969"],"infoHash":"e5720f1a11f17b29be45944b4c51404402c44c19","infoHashBuffer":{"type":"Buffer","data":[229,114,15,26,17,241,123,41,190,69,148,75,76,81,64,68,2,196,76,25]},"announce":[],"urlList":[]}}